<svg xmlns="http://www.w3.org/2000/svg" style="display:none">
  <symbol id="nil-0" viewBox="0 0 20 20"><circle cx="10" cy="10" r="8.5" fill="none" stroke="#374151" stroke-width="0.8" stroke-dasharray="2 2"/><circle cx="10" cy="10" r="0.8" fill="#4b5563"/></symbol>
  <symbol id="nil-1" viewBox="0 0 20 20"><rect width="20" height="20" fill="#0c0a09"/><text x="10" y="14" text-anchor="middle" font-size="13" font-weight="900" fill="#dc2626" font-family="monospace">?</text><circle cx="10" cy="10" r="9" fill="none" stroke="#7f1d1d" stroke-width="0.5" stroke-dasharray="1 1"/><line x1="3" y1="3" x2="17" y2="17" stroke="#dc2626" stroke-width="0.3" opacity="0.4"/><line x1="17" y1="3" x2="3" y2="17" stroke="#dc2626" stroke-width="0.3" opacity="0.4"/></symbol>
  <symbol id="annoying-0" viewBox="0 0 20 20"><rect x="3" y="3" width="14" height="14" fill="#78716c" opacity="0.7"/></symbol>
  <symbol id="annoying-1" viewBox="0 0 20 20"><defs><radialGradient id="annoying_1_evg"><stop offset="0%" stop-color="#ef4444"/><stop offset="100%" stop-color="#7f1d1d"/></radialGradient></defs><rect x="2" y="2" width="16" height="16" fill="url(#annoying_1_evg)" stroke="#fca5a5" stroke-width="0.8"/><rect x="5" y="5" width="10" height="10" fill="none" stroke="#ef4444" stroke-width="0.6" opacity="0.7"/><line x1="2" y1="2" x2="18" y2="18" stroke="#fca5a5" stroke-width="0.5" opacity="0.5"/><line x1="18" y1="2" x2="2" y2="18" stroke="#fca5a5" stroke-width="0.5" opacity="0.5"/></symbol>
  <symbol id="annoying-2" viewBox="0 0 20 20"><defs><radialGradient id="annoying_2_egg" cx="40%" cy="35%"><stop offset="0%" stop-color="#fef9c3"/><stop offset="40%" stop-color="#fde047"/><stop offset="100%" stop-color="#ca8a04"/></radialGradient></defs><ellipse cx="10" cy="11" rx="6.5" ry="8" fill="url(#annoying_2_egg)" stroke="#fbbf24" stroke-width="0.5"/><ellipse cx="8" cy="7.5" rx="2" ry="1.2" fill="white" opacity="0.5" transform="rotate(-20 8 7.5)"/></symbol>
  <symbol id="annoying-3" viewBox="0 0 20 20"><defs><linearGradient id="annoying_3_trg" x1="0" y1="0" x2="0" y2="1"><stop offset="0%" stop-color="#c084fc"/><stop offset="100%" stop-color="#6b21a8"/></linearGradient></defs><polygon points="10,2 12.5,7 18,7 13.5,11 15,17 10,14 5,17 6.5,11 2,7 7.5,7" fill="url(#annoying_3_trg)" stroke="#e9d5ff" stroke-width="0.5"/><circle cx="10" cy="10" r="2.5" fill="#f3e8ff" opacity="0.6"/><text x="10" y="11.5" text-anchor="middle" font-size="3" fill="#7c3aed" font-weight="900">??</text></symbol>
  <symbol id="annoying-4" viewBox="0 0 20 20"><defs><linearGradient id="annoying_4_tri1" x1="0" y1="0" x2="1" y2="1"><stop offset="0%" stop-color="#93c5fd"/><stop offset="100%" stop-color="#1d4ed8"/></linearGradient><linearGradient id="annoying_4_tri2" x1="1" y1="0" x2="0" y2="1"><stop offset="0%" stop-color="#60a5fa"/><stop offset="100%" stop-color="#1e40af"/></linearGradient></defs><polygon points="10,1 19,17 1,17" fill="url(#annoying_4_tri1)" stroke="#bfdbfe" stroke-width="0.6"/><polygon points="10,1 19,17 10,12" fill="url(#annoying_4_tri2)" opacity="0.7"/><line x1="10" y1="1" x2="10" y2="17" stroke="#bfdbfe" stroke-width="0.4" opacity="0.5"/><polygon points="10,1 1,17 10,12" fill="#1e3a8a" opacity="0.4"/></symbol>
  <symbol id="serious-0" viewBox="0 0 20 20"><rect x="4" y="4" width="12" height="12" fill="#6b7280" opacity="0.85" rx="1"/></symbol>
  <symbol id="serious-1" viewBox="0 0 20 20"><circle cx="10" cy="10" r="7" fill="#a78bfa" opacity="0.85"/><circle cx="10" cy="10" r="4" fill="none" stroke="#c4b5fd" stroke-width="0.8" opacity="0.6"/></symbol>
  <symbol id="serious-2" viewBox="0 0 20 20"><circle cx="10" cy="10" r="8" fill="#1e1b4b" stroke="#818cf8" stroke-width="0.9"/><circle cx="10" cy="10" r="1" fill="#818cf8"/><line x1="10" y1="10" x2="10" y2="4" stroke="#a5b4fc" stroke-width="1" stroke-linecap="round"/><line x1="10" y1="10" x2="14" y2="12" stroke="#6366f1" stroke-width="0.8" stroke-linecap="round"/></symbol>
  <symbol id="serious-3" viewBox="0 0 20 20"><defs><linearGradient id="serious_3_pzg" x1="0" y1="0" x2="0" y2="1"><stop offset="0%" stop-color="#fbbf24"/><stop offset="100%" stop-color="#d97706"/></linearGradient></defs><polygon points="10,2 18,17 2,17" fill="url(#serious_3_pzg)" stroke="#f59e0b" stroke-width="0.5"/><circle cx="10" cy="12" r="1.2" fill="#ef4444" opacity="0.9"/><circle cx="7" cy="14.5" r="0.9" fill="#ef4444" opacity="0.9"/><circle cx="13" cy="14" r="0.9" fill="#7c3aed" opacity="0.9"/><line x1="2" y1="17" x2="18" y2="17" stroke="#92400e" stroke-width="1.2"/></symbol>
  <symbol id="serious-4" viewBox="0 0 20 20"><defs><linearGradient id="serious_4_psg" x1="0" y1="0" x2="0" y2="1"><stop offset="0%" stop-color="#fde68a"/><stop offset="100%" stop-color="#f59e0b"/></linearGradient></defs><polygon points="10,2 18,17 2,17" fill="url(#serious_4_psg)" stroke="#fbbf24" stroke-width="0.6"/><circle cx="10" cy="11" r="1.3" fill="#ef4444"/><circle cx="7" cy="14" r="1" fill="#10b981"/><circle cx="13" cy="13.5" r="1" fill="#ef4444"/><circle cx="10" cy="15" r="0.8" fill="#7c3aed"/><polygon points="10,0 11.5,3 10,2.5 8.5,3" fill="#fbbf24" stroke="#f59e0b" stroke-width="0.3"/></symbol>
  <symbol id="serious-5" viewBox="0 0 20 20"><defs><linearGradient id="serious_5_sdg" x1="0" y1="0" x2="0" y2="1"><stop offset="0%" stop-color="#38bdf8"/><stop offset="100%" stop-color="#0369a1"/></linearGradient></defs><path d="M6,5 L7,18 L13,18 L14,5 Z" fill="url(#serious_5_sdg)" stroke="#7dd3fc" stroke-width="0.5"/><rect x="6" y="4" width="8" height="2" rx="1" fill="#0ea5e9" stroke="#7dd3fc" stroke-width="0.4"/><line x1="12" y1="4" x2="15" y2="1" stroke="#bae6fd" stroke-width="0.8" stroke-linecap="round"/><circle cx="9" cy="10" r="0.7" fill="#bae6fd" opacity="0.7"/><circle cx="11" cy="13" r="0.5" fill="#bae6fd" opacity="0.7"/><circle cx="10" cy="8" r="0.5" fill="#bae6fd" opacity="0.5"/></symbol>
  <symbol id="serious-6" viewBox="0 0 20 20"><circle cx="10" cy="10" r="8" fill="#14b8a6" opacity="0.8" stroke="#5eead4" stroke-width="0.6"/><circle cx="7.5" cy="8.5" r="1.2" fill="#0f172a"/><circle cx="12.5" cy="8.5" r="1.2" fill="#0f172a"/><path d="M7,13 Q10,16 13,13" fill="none" stroke="#0f172a" stroke-width="1" stroke-linecap="round"/><circle cx="8.3" cy="8" r="0.4" fill="white" opacity="0.7"/><circle cx="13.3" cy="8" r="0.4" fill="white" opacity="0.7"/></symbol>
  <symbol id="serious-7" viewBox="0 0 20 20"><circle cx="10" cy="11" r="7.5" fill="#059669" opacity="0.85" stroke="#34d399" stroke-width="0.7"/><circle cx="7.5" cy="9.5" r="1.3" fill="#0f172a"/><circle cx="12.5" cy="9.5" r="1.3" fill="#0f172a"/><path d="M7.5,14.5 Q10,13 12.5,14.5" fill="none" stroke="#0f172a" stroke-width="1.1" stroke-linecap="round"/><line x1="7" y1="3.5" x2="8.5" y2="5.5" stroke="#34d399" stroke-width="1.2" stroke-linecap="round"/><line x1="10" y1="3" x2="10" y2="5" stroke="#34d399" stroke-width="1.2" stroke-linecap="round"/><line x1="13" y1="3.5" x2="11.5" y2="5.5" stroke="#34d399" stroke-width="1.2" stroke-linecap="round"/><circle cx="8.3" cy="9" r="0.4" fill="white" opacity="0.7"/></symbol>
  <symbol id="serious-8" viewBox="0 0 20 20"><rect x="7" y="3" width="6" height="15" rx="1" fill="#78716c" stroke="#a8a29e" stroke-width="0.5"/><circle cx="10" cy="11" r="2.8" fill="#d4a853" stroke="#fbbf24" stroke-width="0.6"/><circle cx="10" cy="11" r="1.2" fill="#92400e" opacity="0.8"/><rect x="9.3" y="9.5" width="1.4" height="3" rx="0.5" fill="#fbbf24" opacity="0.7"/></symbol>
  <symbol id="serious-9" viewBox="0 0 20 20"><rect x="3" y="1" width="14" height="18" rx="0.5" fill="#92400e" stroke="#d97706" stroke-width="0.6"/><rect x="5" y="3" width="4.5" height="5.5" rx="0.3" fill="none" stroke="#fbbf24" stroke-width="0.5" opacity="0.6"/><rect x="10.5" y="3" width="4.5" height="5.5" rx="0.3" fill="none" stroke="#fbbf24" stroke-width="0.5" opacity="0.6"/><rect x="5" y="10" width="10" height="7" rx="0.3" fill="none" stroke="#fbbf24" stroke-width="0.5" opacity="0.6"/><circle cx="14" cy="10.5" r="1.3" fill="#fbbf24"/><circle cx="14" cy="10.5" r="0.6" fill="#92400e"/></symbol>
  <symbol id="serious-10" viewBox="0 0 20 20"><defs><linearGradient id="serious_10_crg" x1="0" y1="0" x2="1" y2="1"><stop offset="0%" stop-color="#c084fc"/><stop offset="50%" stop-color="#818cf8"/><stop offset="100%" stop-color="#38bdf8"/></linearGradient></defs><polygon points="10,1 16,6 18,13 10,19 2,13 4,6" fill="url(#serious_10_crg)" stroke="#e9d5ff" stroke-width="0.5"/><polygon points="10,1 16,6 10,8 4,6" fill="#e9d5ff" opacity="0.25"/><polygon points="10,8 16,6 18,13 10,19" fill="#7c3aed" opacity="0.3"/><polygon points="10,8 4,6 2,13 10,19" fill="#6d28d9" opacity="0.25"/><line x1="10" y1="1" x2="10" y2="19" stroke="#c4b5fd" stroke-width="0.4" opacity="0.5"/><circle cx="10" cy="10" r="1.5" fill="white" opacity="0.5"/></symbol>
  <symbol id="serious-11" viewBox="0 0 20 20"><defs><radialGradient id="serious_11_plg" cx="50%" cy="40%"><stop offset="0%" stop-color="#fbcfe8"/><stop offset="100%" stop-color="#db2777"/></radialGradient></defs><rect x="2" y="5" width="16" height="11" rx="4" fill="url(#serious_11_plg)" stroke="#f9a8d4" stroke-width="0.5"/><rect x="4" y="7" width="12" height="7" rx="2.5" fill="none" stroke="#fce7f3" stroke-width="0.5" opacity="0.6" stroke-dasharray="1.5,1"/><circle cx="10" cy="10.5" r="1" fill="#fce7f3" opacity="0.6"/></symbol>
  <symbol id="serious-12" viewBox="0 0 20 20"><defs><linearGradient id="serious_12_pog" x1="0" y1="0" x2="0" y2="1"><stop offset="0%" stop-color="#fef08a"/><stop offset="100%" stop-color="#b45309"/></linearGradient></defs><polygon points="10,1 19,18 1,18" fill="url(#serious_12_pog)" stroke="#fbbf24" stroke-width="0.7"/><circle cx="10" cy="11" r="1.5" fill="#dc2626"/><circle cx="7" cy="14" r="1.1" fill="#dc2626"/><circle cx="13" cy="13" r="1.1" fill="#7c3aed"/><circle cx="10.5" cy="15.5" r="0.8" fill="#16a34a"/><polygon points="8,1 9.5,4 10,2 10.5,4 12,1 11,3.5 10,2.5 9,3.5" fill="#fbbf24" stroke="#d97706" stroke-width="0.3"/><path d="M5,18 Q4.5,19.5 4,18.5" fill="none" stroke="#f59e0b" stroke-width="0.8"/><path d="M15,18 Q15.5,19.5 16,18.5" fill="none" stroke="#f59e0b" stroke-width="0.8"/></symbol>
  <symbol id="serious-13" viewBox="0 0 20 20"><defs><linearGradient id="serious_13_bgg" x1="0" y1="0" x2="1" y2="1"><stop offset="0%" stop-color="#f97316"/><stop offset="100%" stop-color="#dc2626"/></linearGradient></defs><rect x="1" y="1" width="18" height="18" rx="2" fill="url(#serious_13_bgg)" opacity="0.9"/><text x="10" y="14" text-anchor="middle" font-size="9" font-weight="900" fill="white" font-family="monospace">BIG</text></symbol>
  <symbol id="serious-14" viewBox="0 0 20 20"><path d="M3,10 Q6,6 10,10 Q14,14 17,10" fill="none" stroke="#bae6fd" stroke-width="1" opacity="0.5" stroke-linecap="round"/><path d="M3,13 Q7,9 11,13 Q15,17 18,13" fill="none" stroke="#e0f2fe" stroke-width="0.7" opacity="0.35" stroke-linecap="round"/><circle cx="5" cy="7" r="0.5" fill="#bae6fd" opacity="0.4"/><circle cx="15" cy="8" r="0.5" fill="#bae6fd" opacity="0.4"/><circle cx="10" cy="5" r="0.4" fill="#e0f2fe" opacity="0.3"/></symbol>
  <symbol id="serious-15" viewBox="0 0 20 20"><rect x="1" y="1" width="18" height="18" rx="2" fill="#1a1a2e" opacity="0.9"/><text x="10" y="8" text-anchor="middle" font-size="3.5" fill="#a3e635" font-family="monospace" font-weight="700">i got lazy</text><text x="10" y="13" text-anchor="middle" font-size="3" fill="#84cc16" font-family="monospace">giant steps</text><text x="10" y="17.5" text-anchor="middle" font-size="3.5" fill="#bef264">¯_(tsu)_/¯</text></symbol>
  <symbol id="serious-16" viewBox="0 0 20 20"><rect x="1" y="1" width="18" height="18" rx="2" fill="#111827" opacity="0.95"/><text x="10" y="14.5" text-anchor="middle" font-size="13" font-weight="900" fill="#e5e7eb" font-family="monospace">h</text></symbol>
  <symbol id="serious-17" viewBox="0 0 20 20"><circle cx="10" cy="10" r="9" fill="#0e7490" opacity="0.7"/><circle cx="10" cy="10" r="7" fill="none" stroke="#22d3ee" stroke-width="0.5" opacity="0.8"/><circle cx="10" cy="10" r="5" fill="#0891b2" opacity="0.6"/><circle cx="10" cy="10" r="3" fill="none" stroke="#67e8f9" stroke-width="0.6"/><circle cx="10" cy="10" r="1.5" fill="#22d3ee"/><circle cx="4" cy="4" r="1.2" fill="#38bdf8" opacity="0.7"/><circle cx="16" cy="4" r="1" fill="#38bdf8" opacity="0.6"/><circle cx="4" cy="16" r="1" fill="#22d3ee" opacity="0.6"/><circle cx="16" cy="16" r="1.2" fill="#06b6d4" opacity="0.7"/><circle cx="10" cy="2" r="0.7" fill="#7dd3fc" opacity="0.5"/><circle cx="10" cy="18" r="0.7" fill="#7dd3fc" opacity="0.5"/><circle cx="2" cy="10" r="0.7" fill="#7dd3fc" opacity="0.5"/><circle cx="18" cy="10" r="0.7" fill="#7dd3fc" opacity="0.5"/></symbol>
  <symbol id="eww-0" viewBox="0 0 20 20"><defs><linearGradient id="eww_0_gc" x1="0" y1="0" x2="1" y2="1"><stop offset="0%" stop-color="#4d7c0f"/><stop offset="100%" stop-color="#1a2e05"/></linearGradient></defs><polygon points="10,1 17,6 17,14 10,19 3,14 3,6" fill="url(#eww_0_gc)" stroke="#65a30d" stroke-width="0.6"/><polygon points="10,4 14,7 14,13 10,16 6,13 6,7" fill="#1a2e05" opacity="0.5"/><line x1="10" y1="1" x2="10" y2="19" stroke="#84cc16" stroke-width="0.3" opacity="0.4"/></symbol>
  <symbol id="eww-1" viewBox="0 0 20 20"><rect x="5" y="1" width="3" height="18" fill="#a3e635" rx="1"/><rect x="12" y="1" width="3" height="18" fill="#a3e635" rx="1"/></symbol>
  <symbol id="eww-2" viewBox="0 0 20 20"><circle cx="10" cy="10" r="9" fill="#1e1b4b" stroke="#818cf8" stroke-width="0.8"/><text x="10" y="14" text-anchor="middle" font-size="11" font-weight="900" fill="#a5b4fc" font-family="serif" font-style="italic">e</text></symbol>
  <symbol id="eww-3" viewBox="0 0 20 20"><circle cx="10" cy="10" r="9" fill="#450a0a" stroke="#dc2626" stroke-width="1"/><line x1="4" y1="4" x2="16" y2="16" stroke="#ef4444" stroke-width="2.5" stroke-linecap="round"/><line x1="16" y1="4" x2="4" y2="16" stroke="#ef4444" stroke-width="2.5" stroke-linecap="round"/><text x="10" y="19.5" text-anchor="middle" font-size="3.5" fill="#fca5a5" font-weight="700">NO</text></symbol>
  <symbol id="eww-4" viewBox="0 0 20 20"><ellipse cx="10" cy="7" rx="7" ry="4" fill="#d97706"/><rect x="3" y="10" width="14" height="3" fill="#7f1d1d"/><ellipse cx="10" cy="13.5" rx="7" ry="3" fill="#d97706"/><ellipse cx="10" cy="10" rx="6" ry="1" fill="#16a34a" opacity="0.7"/></symbol>
  <symbol id="eww-5" viewBox="0 0 20 20"><defs><radialGradient id="eww_5_eg"><stop offset="0%" stop-color="#67e8f9"/><stop offset="100%" stop-color="#0e7490"/></radialGradient></defs><circle cx="10" cy="10" r="9" fill="#083344" stroke="#22d3ee" stroke-width="0.7"/><text x="10" y="14.5" text-anchor="middle" font-size="12" font-weight="900" fill="url(#eww_5_eg)" font-family="monospace">G</text><line x1="2" y1="3" x2="5" y2="8" stroke="#67e8f9" stroke-width="0.5" opacity="0.6"/><line x1="18" y1="4" x2="15" y2="9" stroke="#67e8f9" stroke-width="0.5" opacity="0.6"/></symbol>
  <symbol id="eww-6" viewBox="0 0 20 20"><defs><radialGradient id="eww_6_ps" cx="35%" cy="30%"><stop offset="0%" stop-color="#d1d5db"/><stop offset="100%" stop-color="#6b7280"/></radialGradient></defs><ellipse cx="10" cy="11" rx="8" ry="7" fill="url(#eww_6_ps)" stroke="#9ca3af" stroke-width="0.5"/><ellipse cx="8" cy="8" rx="2" ry="1.2" fill="white" opacity="0.3" transform="rotate(-15 8 8)"/></symbol>
  <symbol id="eww-7" viewBox="0 0 20 20"><circle cx="10" cy="10" r="9" fill="#1d4ed8" stroke="#3b82f6" stroke-width="0.6"/><circle cx="7" cy="7" r="1.5" fill="#1e40af"/><circle cx="13" cy="8" r="1.5" fill="#1e40af"/><circle cx="8" cy="13" r="1.5" fill="#1e40af"/><circle cx="14" cy="13" r="1.5" fill="#1e40af"/><circle cx="10" cy="10" r="1" fill="#1e40af"/><text x="10" y="20.5" text-anchor="middle" font-size="3" fill="#93c5fd">yummy</text></symbol>
  <symbol id="eww-8" viewBox="0 0 20 20"><defs><radialGradient id="eww_8_sk"><stop offset="0%" stop-color="#f5f5f4"/><stop offset="100%" stop-color="#a8a29e"/></radialGradient></defs><ellipse cx="10" cy="8" rx="7" ry="7" fill="url(#eww_8_sk)" stroke="#d6d3d1" stroke-width="0.5"/><rect x="5" y="13" width="10" height="4" fill="url(#eww_8_sk)" stroke="#d6d3d1" stroke-width="0.5" rx="1"/><circle cx="7.5" cy="8" r="2" fill="#1c1917"/><circle cx="12.5" cy="8" r="2" fill="#1c1917"/><rect x="6" y="15" width="2" height="3" fill="#1c1917" rx="0.3"/><rect x="9" y="15" width="2" height="3" fill="#1c1917" rx="0.3"/><rect x="12" y="15" width="2" height="3" fill="#1c1917" rx="0.3"/></symbol>
  <symbol id="eww-9" viewBox="0 0 20 20"><defs><linearGradient id="eww_9_wb" x1="0" y1="0" x2="0" y2="1"><stop offset="0%" stop-color="#bae6fd" stop-opacity="0.8"/><stop offset="100%" stop-color="#0369a1" stop-opacity="0.9"/></linearGradient></defs><path d="M6,2 Q10,1 14,2 L15,4 Q17,5 17,8 L17,15 Q17,18 10,18 Q3,18 3,15 L3,8 Q3,5 5,4 Z" fill="url(#eww_9_wb)" stroke="#38bdf8" stroke-width="0.6"/><ellipse cx="10" cy="9" rx="4" ry="2" fill="#7dd3fc" opacity="0.4"/><line x1="7" y1="2.5" x2="13" y2="2.5" stroke="#e0f2fe" stroke-width="1" opacity="0.7"/></symbol>
  <symbol id="eww-10" viewBox="0 0 20 20"><circle cx="10" cy="9" r="8" fill="#4d7c0f" stroke="#65a30d" stroke-width="0.7"/><circle cx="7.5" cy="7.5" r="1.5" fill="#1a2e05"/><circle cx="12.5" cy="7.5" r="1.5" fill="#1a2e05"/><path d="M6,12 Q10,16 14,12" stroke="#1a2e05" stroke-width="1.2" fill="none"/><path d="M9,17 Q10,20 11,17 Q12,20 13,18" stroke="#65a30d" stroke-width="1" fill="#84cc16" opacity="0.8"/></symbol>
  <symbol id="eww-11" viewBox="0 0 20 20"><rect width="20" height="20" fill="#0c0a09"/><circle cx="5" cy="5" r="3" fill="#f43f5e" opacity="0.9"/><circle cx="15" cy="5" r="3" fill="#a855f7" opacity="0.9"/><circle cx="5" cy="15" r="3" fill="#22d3ee" opacity="0.9"/><circle cx="15" cy="15" r="3" fill="#eab308" opacity="0.9"/><circle cx="10" cy="10" r="4" fill="#f97316" opacity="0.7"/><line x1="0" y1="0" x2="20" y2="20" stroke="#84cc16" stroke-width="0.8"/><line x1="20" y1="0" x2="0" y2="20" stroke="#ec4899" stroke-width="0.8"/><line x1="10" y1="0" x2="10" y2="20" stroke="#67e8f9" stroke-width="0.5" opacity="0.6"/><line x1="0" y1="10" x2="20" y2="10" stroke="#fb923c" stroke-width="0.5" opacity="0.6"/></symbol>
  <symbol id="eww-12" viewBox="0 0 20 20"><defs><linearGradient id="eww_12_gbt" x1="0" y1="0" x2="0" y2="1"><stop offset="0%" stop-color="#fee2e2"/><stop offset="30%" stop-color="#dc2626"/><stop offset="100%" stop-color="#7f1d1d"/></linearGradient></defs><rect x="8" y="1" width="4" height="3" fill="#6b7280" rx="0.5"/><path d="M7,4 Q5,6 5,8 L5,16 Q5,19 10,19 Q15,19 15,16 L15,8 Q15,6 13,4 Z" fill="url(#eww_12_gbt)" stroke="#fca5a5" stroke-width="0.5"/><ellipse cx="10" cy="11" rx="3" ry="2" fill="#ef4444" opacity="0.3"/><text x="10" y="15" text-anchor="middle" font-size="3" fill="#fecaca" font-weight="700">G</text></symbol>
  <symbol id="rgb-0" viewBox="0 0 20 20"><rect x="3" y="3" width="14" height="14" fill="#ef4444" stroke="#fca5a5" stroke-width="0.7"/></symbol>
  <symbol id="rgb-1" viewBox="0 0 20 20"><rect x="3" y="3" width="14" height="14" fill="#16a34a" stroke="#86efac" stroke-width="0.7"/><line x1="3" y1="3" x2="17" y2="17" stroke="#bbf7d0" stroke-width="1" opacity="0.8"/><line x1="17" y1="3" x2="3" y2="17" stroke="#bbf7d0" stroke-width="1" opacity="0.8"/></symbol>
  <symbol id="rgb-2" viewBox="0 0 20 20"><defs><radialGradient id="rgb_2_rgbblue" cx="35%" cy="30%"><stop offset="0%" stop-color="#bfdbfe"/><stop offset="60%" stop-color="#2563eb"/><stop offset="100%" stop-color="#1e3a8a"/></radialGradient></defs><circle cx="10" cy="10" r="9" fill="url(#rgb_2_rgbblue)"/><ellipse cx="7.5" cy="7" rx="2.5" ry="1.5" fill="white" opacity="0.3" transform="rotate(-20,7.5,7)"/></symbol>
  <symbol id="rgb-4" viewBox="0 0 20 20"><defs><radialGradient id="rgb_4_rgbpglow" cx="50%" cy="50%"><stop offset="0%" stop-color="#d8b4fe" stop-opacity="0.9"/><stop offset="60%" stop-color="#9333ea" stop-opacity="0.4"/><stop offset="100%" stop-color="#9333ea" stop-opacity="0"/></radialGradient><linearGradient id="rgb_4_rgbpx" x1="0" y1="0" x2="1" y2="1"><stop offset="0%" stop-color="#e9d5ff"/><stop offset="50%" stop-color="#a855f7"/><stop offset="100%" stop-color="#581c87"/></linearGradient></defs><circle cx="10" cy="10" r="11" fill="url(#rgb_4_rgbpglow)"/><polygon points="10,1 14.5,7 12.5,19 7.5,19 5.5,7" fill="url(#rgb_4_rgbpx)" stroke="#e9d5ff" stroke-width="0.5"/><polygon points="10,1 12.5,7 10,10 7.5,7" fill="white" opacity="0.35"/><line x1="10" y1="1" x2="10" y2="19" stroke="#f3e8ff" stroke-width="0.3" opacity="0.5"/></symbol>
  <symbol id="rgb-5" viewBox="0 0 20 20"><defs><radialGradient id="rgb_5_rgboaura" cx="50%" cy="50%"><stop offset="0%" stop-color="#fed7aa" stop-opacity="0.9"/><stop offset="45%" stop-color="#f97316" stop-opacity="0.45"/><stop offset="100%" stop-color="#7c2d12" stop-opacity="0"/></radialGradient><linearGradient id="rgb_5_rgbohex" x1="0" y1="0" x2="0" y2="1"><stop offset="0%" stop-color="#fed7aa"/><stop offset="50%" stop-color="#f97316"/><stop offset="100%" stop-color="#9a3412"/></linearGradient></defs><circle cx="10" cy="10" r="13" fill="url(#rgb_5_rgboaura)"/><polygon points="10,1 18,5.5 18,14.5 10,19 2,14.5 2,5.5" fill="url(#rgb_5_rgbohex)" stroke="#fed7aa" stroke-width="0.5"/><polygon points="10,4 15,6.7 15,12.3 10,15 5,12.3 5,6.7" fill="#fff7ed" opacity="0.2"/><circle cx="10" cy="10" r="14.5" fill="none" stroke="#fdba74" stroke-width="0.4" opacity="0.5"/></symbol>
  <symbol id="elements-0" viewBox="0 0 24 24"><path d="M3,12 Q6,7 12,12 Q18,17 21,12" fill="none" stroke="#7dd3fc" stroke-width="1.5" stroke-linecap="round"/><path d="M3,16 Q8,11 14,16 Q19,21 22,16" fill="none" stroke="#bae6fd" stroke-width="1" stroke-linecap="round" opacity="0.6"/><circle cx="20" cy="8" r="2" fill="#38bdf8" opacity="0.4"/></symbol>
  <symbol id="elements-1" viewBox="0 0 24 24"><defs><radialGradient id="elements_1_fg" cx="50%" cy="80%"><stop offset="0%" stop-color="#fbbf24"/><stop offset="60%" stop-color="#ef4444"/><stop offset="100%" stop-color="#7c2d12" stop-opacity="0"/></radialGradient></defs><path d="M12,2 Q16,8 14,12 Q18,8 16,14 Q19,11 17,17 Q15,22 12,22 Q9,22 7,17 Q5,11 8,14 Q6,8 10,12 Q8,8 12,2Z" fill="url(#elements_1_fg)"/><path d="M12,10 Q13,14 12,18 Q11,14 12,10Z" fill="#fef08a" opacity="0.7"/></symbol>
  <symbol id="elements-2" viewBox="0 0 24 24"><defs><linearGradient id="elements_2_wg" x1="0" y1="0" x2="0" y2="1"><stop offset="0%" stop-color="#93c5fd"/><stop offset="100%" stop-color="#1d4ed8"/></linearGradient></defs><path d="M12,2 Q18,10 18,15 A6,6 0 0,1 6,15 Q6,10 12,2Z" fill="url(#elements_2_wg)"/><ellipse cx="10" cy="13" rx="2" ry="3" fill="white" opacity="0.25" transform="rotate(-20,10,13)"/></symbol>
  <symbol id="elements-3" viewBox="0 0 24 24"><rect x="2" y="16" width="20" height="4" rx="1" fill="#92400e"/><rect x="2" y="12" width="20" height="4" rx="1" fill="#b45309"/><rect x="2" y="8" width="20" height="4" rx="1" fill="#d97706"/><path d="M4,8 Q8,4 12,6 Q16,4 20,8" fill="#86efac" opacity="0.8"/></symbol>
  <symbol id="elements-4" viewBox="0 0 24 24"><path d="M2,8 Q8,4 14,8 Q18,10 16,14 Q14,18 10,16" fill="none" stroke="#67e8f9" stroke-width="2" stroke-linecap="round"/><path d="M2,14 Q7,10 12,14 Q15,16 14,19 Q13,21 11,20" fill="none" stroke="#a5f3fc" stroke-width="1.5" stroke-linecap="round"/><circle cx="16" cy="7" r="2.5" fill="none" stroke="#67e8f9" stroke-width="1"/></symbol>
  <symbol id="elements-5" viewBox="0 0 24 24"><defs><radialGradient id="elements_5_eg" cx="50%" cy="50%"><stop offset="0%" stop-color="#fef08a"/><stop offset="40%" stop-color="#f97316"/><stop offset="100%" stop-color="#7c2d12" stop-opacity="0"/></radialGradient></defs><polygon points="12,1 14,8 21,6 16,11 22,14 15,14 17,21 12,17 7,21 9,14 2,14 8,11 3,6 10,8" fill="url(#elements_5_eg)"/></symbol>
  <symbol id="elements-6" viewBox="0 0 24 24"><ellipse cx="12" cy="15" rx="10" ry="5" fill="#0e7490" opacity="0.7"/><ellipse cx="12" cy="14" rx="10" ry="4" fill="#0891b2" opacity="0.5"/><ellipse cx="9" cy="14" rx="3.5" ry="2" fill="#16a34a" opacity="0.8"/><path d="M9,12 L9,14" stroke="#15803d" stroke-width="0.8"/><circle cx="14" cy="13" r="1" fill="#f9a8d4" opacity="0.9"/></symbol>
  <symbol id="elements-7" viewBox="0 0 24 24"><polygon points="12,3 22,21 2,21" fill="#78716c"/><polygon points="12,3 16,11 8,11" fill="white" opacity="0.7"/><polygon points="6,10 13,21 2,21" fill="#57534e" opacity="0.5"/></symbol>
  <symbol id="elements-8" viewBox="0 0 24 24"><defs><radialGradient id="elements_8_pg" cx="50%" cy="50%"><stop offset="0%" stop-color="#e9d5ff"/><stop offset="50%" stop-color="#7c3aed"/><stop offset="100%" stop-color="#2e1065" stop-opacity="0.3"/></radialGradient></defs><circle cx="12" cy="12" r="9" fill="url(#elements_8_pg)"/><path d="M12,4 L10,11 L14,11 L9,20 L13,13 L9,13 Z" fill="#fde68a" opacity="0.9"/><circle cx="12" cy="12" r="3" fill="white" opacity="0.3"/></symbol>
  <symbol id="elements-9" viewBox="0 0 24 24"><path d="M12,3 Q18,5 16,9 Q14,13 12,13 Q10,13 8,15 Q6,19 12,21" fill="none" stroke="#a5b4fc" stroke-width="2" stroke-linecap="round"/><path d="M8,6 Q14,7 13,10 Q12,13 10,14" fill="none" stroke="#c7d2fe" stroke-width="1.5" stroke-linecap="round" opacity="0.7"/><path d="M10,17 Q13,18 14,20" fill="none" stroke="#818cf8" stroke-width="1" stroke-linecap="round" opacity="0.5"/></symbol>
  <symbol id="elements-10" viewBox="0 0 24 24"><defs><linearGradient id="elements_10_og" x1="0" y1="0" x2="0" y2="1"><stop offset="0%" stop-color="#0ea5e9"/><stop offset="100%" stop-color="#1e3a5f"/></linearGradient></defs><rect x="0" y="0" width="24" height="24" fill="url(#elements_10_og)" opacity="0.8" rx="2"/><path d="M0,10 Q4,7 8,10 Q12,13 16,10 Q20,7 24,10" fill="none" stroke="white" stroke-width="1.2" opacity="0.6"/><path d="M0,15 Q4,12 8,15 Q12,18 16,15 Q20,12 24,15" fill="none" stroke="white" stroke-width="1" opacity="0.4"/><circle cx="19" cy="5" r="3" fill="#fbbf24" opacity="0.6"/></symbol>
  <symbol id="elements-11" viewBox="0 0 24 24"><circle cx="12" cy="12" r="10" fill="#166534"/><ellipse cx="9" cy="10" rx="4" ry="3" fill="#15803d" transform="rotate(-20,9,10)"/><ellipse cx="16" cy="14" rx="3" ry="2" fill="#15803d" transform="rotate(15,16,14)"/><path d="M2,12 Q12,8 22,12" fill="none" stroke="#86efac" stroke-width="0.5" opacity="0.4"/><circle cx="12" cy="12" r="10" fill="none" stroke="#4ade80" stroke-width="0.5" opacity="0.3"/></symbol>
  <symbol id="elements-12" viewBox="0 0 24 24"><defs><radialGradient id="elements_12_hg" cx="50%" cy="70%"><stop offset="0%" stop-color="#fef08a"/><stop offset="40%" stop-color="#f97316"/><stop offset="80%" stop-color="#dc2626"/><stop offset="100%" stop-color="#450a0a" stop-opacity="0"/></radialGradient></defs><path d="M12,1 Q17,6 15,10 Q20,5 18,12 Q22,8 20,15 Q18,21 12,22 Q6,21 4,15 Q2,8 6,12 Q4,5 9,10 Q7,6 12,1Z" fill="url(#elements_12_hg)"/><path d="M12,8 Q14,13 12,19 Q10,13 12,8Z" fill="#fef9c3" opacity="0.8"/><polygon points="12,1 13,4 12,3 11,4" fill="#fbbf24"/><polygon points="8,2 9,5 8,4 7,5" fill="#f97316" opacity="0.8"/><polygon points="16,2 17,5 16,4 15,5" fill="#f97316" opacity="0.8"/><text x="12" y="13" text-anchor="middle" font-size="4" fill="#fef9c3" font-family="serif" font-weight="bold" opacity="0.9">神</text></symbol>
  <symbol id="elements-13" viewBox="0 0 24 24"><defs><radialGradient id="elements_13_ag" cx="50%" cy="50%"><stop offset="0%" stop-color="#e0f2fe"/><stop offset="100%" stop-color="#0369a1" stop-opacity="0.2"/></radialGradient></defs><circle cx="12" cy="12" r="10" fill="url(#elements_13_ag)" opacity="0.6"/><path d="M12,4 Q18,6 17,10 Q16,14 12,13 Q8,12 8,15 Q8,19 12,20" fill="none" stroke="#38bdf8" stroke-width="2" stroke-linecap="round"/><path d="M7,6 Q13,7 12,11 Q11,14 9,14" fill="none" stroke="#7dd3fc" stroke-width="1.2" stroke-linecap="round" opacity="0.7"/><text x="12" y="13" text-anchor="middle" font-size="4" fill="#bae6fd" font-family="serif" font-weight="bold" opacity="0.9">神</text><circle cx="12" cy="12" r="10" fill="none" stroke="#7dd3fc" stroke-width="0.5" opacity="0.5"/></symbol>
  <symbol id="elements-14" viewBox="0 0 24 24"><defs><radialGradient id="elements_14_wdg" cx="50%" cy="60%"><stop offset="0%" stop-color="#bfdbfe"/><stop offset="60%" stop-color="#1d4ed8"/><stop offset="100%" stop-color="#1e3a8a" stop-opacity="0.5"/></radialGradient></defs><path d="M12,1 Q20,10 20,16 A8,8 0 0,1 4,16 Q4,10 12,1Z" fill="url(#elements_14_wdg)"/><ellipse cx="9" cy="14" rx="2.5" ry="4" fill="white" opacity="0.2" transform="rotate(-20,9,14)"/><text x="12" y="17" text-anchor="middle" font-size="4" fill="#bfdbfe" font-family="serif" font-weight="bold" opacity="0.9">神</text><circle cx="12" cy="12" r="11" fill="none" stroke="#93c5fd" stroke-width="0.5" opacity="0.4"/></symbol>
  <symbol id="elements-15" viewBox="0 0 24 24"><defs><radialGradient id="elements_15_edg" cx="40%" cy="40%"><stop offset="0%" stop-color="#6ee7b7"/><stop offset="100%" stop-color="#064e3b"/></radialGradient></defs><circle cx="12" cy="12" r="10" fill="url(#elements_15_edg)"/><ellipse cx="8" cy="9" rx="4" ry="2.5" fill="#15803d" transform="rotate(-20,8,9)"/><ellipse cx="16" cy="15" rx="3.5" ry="2" fill="#166534" transform="rotate(10,16,15)"/><ellipse cx="13" cy="8" rx="2" ry="1.5" fill="#15803d" opacity="0.8"/><text x="12" y="14" text-anchor="middle" font-size="4" fill="#d1fae5" font-family="serif" font-weight="bold" opacity="0.9">神</text><circle cx="12" cy="12" r="10" fill="none" stroke="#4ade80" stroke-width="0.6" opacity="0.5"/></symbol>
  <symbol id="ratings-0" viewBox="0 0 24 24"><rect x="3" y="3" width="18" height="18" rx="2" fill="none" stroke="#9ca3af" stroke-width="1.5"/></symbol>
  <symbol id="ratings-1" viewBox="0 0 24 24"><rect x="3" y="3" width="18" height="18" rx="2" fill="none" stroke="#d1d5db" stroke-width="1.5"/><circle cx="12" cy="12" r="2" fill="#d1d5db"/></symbol>
  <symbol id="ratings-2" viewBox="0 0 24 24"><rect x="3" y="3" width="18" height="18" rx="2" fill="none" stroke="#4ade80" stroke-width="1.5"/><line x1="8" y1="12" x2="16" y2="12" stroke="#4ade80" stroke-width="1.5"/><line x1="12" y1="8" x2="12" y2="16" stroke="#4ade80" stroke-width="1.5"/></symbol>
  <symbol id="ratings-3" viewBox="0 0 24 24"><rect x="3" y="3" width="18" height="18" rx="2" fill="none" stroke="#60a5fa" stroke-width="1.5"/><polygon points="12,7 17,12 12,17 7,12" fill="none" stroke="#60a5fa" stroke-width="1.2"/></symbol>
  <symbol id="ratings-4" viewBox="0 0 24 24"><rect x="3" y="3" width="18" height="18" rx="2" fill="none" stroke="#818cf8" stroke-width="1.5"/><polygon points="12,7 13.5,10.5 17,11 14.5,13.5 15,17 12,15 9,17 9.5,13.5 7,11 10.5,10.5" fill="#818cf8" opacity="0.7"/></symbol>
  <symbol id="ratings-5" viewBox="0 0 24 24"><rect x="3" y="3" width="18" height="18" rx="2" fill="none" stroke="#22d3ee" stroke-width="1.5"/><ellipse cx="12" cy="12" rx="5" ry="3" fill="none" stroke="#22d3ee" stroke-width="1.2"/><circle cx="12" cy="12" r="1.5" fill="#22d3ee"/></symbol>
  <symbol id="ratings-6" viewBox="0 0 24 24"><rect x="3" y="3" width="18" height="18" rx="2" fill="none" stroke="#c084fc" stroke-width="1.5"/><polygon points="7,15 7,10 10,13 12,8 14,13 17,10 17,15" fill="#c084fc" opacity="0.8"/><rect x="7" y="15" width="10" height="1.5" fill="#c084fc"/></symbol>
  <symbol id="ratings-7" viewBox="0 0 24 24"><rect x="3" y="3" width="18" height="18" rx="2" fill="none" stroke="#f472b6" stroke-width="1.5"/><polygon points="13,7 9,13 12,13 11,17 15,11 12,11" fill="#f472b6" opacity="0.9"/></symbol>
  <symbol id="ratings-8" viewBox="0 0 24 24"><rect x="3" y="3" width="18" height="18" rx="2" fill="none" stroke="#e879f9" stroke-width="1.5"/><path d="M12,12 Q12,9 15,9 Q18,9 18,12 Q18,16 14,16 Q10,16 10,12 Q10,8 14,8" fill="none" stroke="#e879f9" stroke-width="1.2" stroke-linecap="round"/></symbol>
  <symbol id="ratings-9" viewBox="0 0 24 24"><rect x="3" y="3" width="18" height="18" rx="2" fill="none" stroke="#facc15" stroke-width="1.5"/><circle cx="12" cy="12" r="3" fill="none" stroke="#facc15" stroke-width="1.2"/><line x1="12" y1="7" x2="12" y2="9" stroke="#facc15" stroke-width="1.5" stroke-linecap="round"/><line x1="12" y1="15" x2="12" y2="17" stroke="#facc15" stroke-width="1.5" stroke-linecap="round"/><line x1="7" y1="12" x2="9" y2="12" stroke="#facc15" stroke-width="1.5" stroke-linecap="round"/><line x1="15" y1="12" x2="17" y2="12" stroke="#facc15" stroke-width="1.5" stroke-linecap="round"/><line x1="8.9" y1="8.9" x2="10.3" y2="10.3" stroke="#facc15" stroke-width="1.2" stroke-linecap="round"/><line x1="13.7" y1="13.7" x2="15.1" y2="15.1" stroke="#facc15" stroke-width="1.2" stroke-linecap="round"/></symbol>
  <symbol id="ratings-10" viewBox="0 0 24 24"><defs><radialGradient id="ratings_10_eng" cx="50%" cy="50%"><stop offset="0%" stop-color="#fb923c" stop-opacity="0.2"/><stop offset="100%" stop-color="#431407" stop-opacity="0"/></radialGradient></defs><rect x="3" y="3" width="18" height="18" rx="2" fill="url(#ratings_10_eng)" stroke="#fb923c" stroke-width="1.5"/><text x="12" y="16" text-anchor="middle" font-size="9" fill="#fb923c" font-weight="bold">?</text></symbol>
  <symbol id="ratings-11" viewBox="0 0 24 24"><rect x="3" y="3" width="18" height="18" rx="2" fill="none" stroke="#f87171" stroke-width="1.5"/><rect x="6" y="6" width="12" height="12" rx="1" fill="none" stroke="#f87171" stroke-width="1" opacity="0.5"/><line x1="8" y1="8" x2="16" y2="16" stroke="#f87171" stroke-width="1.2"/><line x1="16" y1="8" x2="8" y2="16" stroke="#f87171" stroke-width="1.2"/></symbol>
  <symbol id="ratings-12" viewBox="0 0 24 24"><rect x="3" y="3" width="18" height="18" rx="2" fill="none" stroke="#fb7185" stroke-width="1.5"/><path d="M7,12 Q9,8 12,12 Q15,16 17,12 Q15,8 12,12 Q9,16 7,12Z" fill="none" stroke="#fb7185" stroke-width="1.4"/></symbol>
  <symbol id="ratings-13" viewBox="0 0 24 24"><defs><linearGradient id="ratings_13_dg" x1="0" y1="0" x2="1" y2="1"><stop offset="0%" stop-color="#bae6fd"/><stop offset="100%" stop-color="#0284c7"/></linearGradient></defs><rect x="3" y="3" width="18" height="18" rx="2" fill="none" stroke="#7dd3fc" stroke-width="1.5"/><polygon points="12,7 16,11 12,17 8,11" fill="url(#ratings_13_dg)" opacity="0.8"/><line x1="8" y1="11" x2="16" y2="11" stroke="#e0f2fe" stroke-width="0.8"/></symbol>
  <symbol id="ratings-14" viewBox="0 0 24 24"><defs><radialGradient id="ratings_14_omg" cx="50%" cy="50%"><stop offset="0%" stop-color="#7c3aed" stop-opacity="0.3"/><stop offset="100%" stop-color="#2e1065" stop-opacity="0"/></radialGradient></defs><rect x="3" y="3" width="18" height="18" rx="2" fill="url(#ratings_14_omg)" stroke="#a78bfa" stroke-width="1.5"/><text x="12" y="16" text-anchor="middle" font-size="9" fill="#a78bfa" font-weight="bold">Ω</text></symbol>
  <symbol id="ratings-15" viewBox="0 0 24 24"><rect x="3" y="3" width="18" height="18" rx="2" fill="none" stroke="#fbbf24" stroke-width="1.5"/><rect x="6" y="6" width="12" height="12" rx="1" fill="none" stroke="#fbbf24" stroke-width="0.8" opacity="0.5"/><circle cx="6" cy="6" r="1.2" fill="#fbbf24"/><circle cx="18" cy="6" r="1.2" fill="#fbbf24"/><circle cx="6" cy="18" r="1.2" fill="#fbbf24"/><circle cx="18" cy="18" r="1.2" fill="#fbbf24"/><circle cx="12" cy="12" r="2.5" fill="none" stroke="#fbbf24" stroke-width="1"/></symbol>
  <symbol id="ratings-16" viewBox="0 0 24 24"><defs><radialGradient id="ratings_16_ug" cx="50%" cy="50%"><stop offset="0%" stop-color="#84cc16" stop-opacity="0.3"/><stop offset="100%" stop-color="#14532d" stop-opacity="0"/></radialGradient></defs><rect x="3" y="3" width="18" height="18" rx="2" fill="url(#ratings_16_ug)" stroke="#84cc16" stroke-width="1.5"/><polygon points="12,7 16,13 13.5,13 13.5,17 10.5,17 10.5,13 8,13" fill="#84cc16" opacity="0.85"/></symbol>
  <symbol id="ratings-17" viewBox="0 0 24 24"><rect x="3" y="3" width="18" height="18" rx="2" fill="none" stroke="#2dd4bf" stroke-width="1.5"/><circle cx="12" cy="12" r="5" fill="none" stroke="#2dd4bf" stroke-width="1" stroke-dasharray="2,3"/><circle cx="12" cy="12" r="1" fill="#2dd4bf" opacity="0.5"/></symbol>
  <symbol id="ratings-18" viewBox="0 0 24 24"><defs><radialGradient id="ratings_18_ig" cx="50%" cy="50%"><stop offset="0%" stop-color="white" stop-opacity="0.4"/><stop offset="100%" stop-color="white" stop-opacity="0"/></radialGradient></defs><rect x="2" y="2" width="20" height="20" rx="2" fill="url(#ratings_18_ig)" stroke="white" stroke-width="1.5"/><rect x="5" y="5" width="14" height="14" rx="1.5" fill="none" stroke="white" stroke-width="1" opacity="0.6"/><rect x="8" y="8" width="8" height="8" rx="1" fill="none" stroke="white" stroke-width="0.8" opacity="0.4"/><rect x="10" y="10" width="4" height="4" rx="0.5" fill="white" opacity="0.5"/></symbol>
  <symbol id="ratings-19" viewBox="0 0 24 24"><defs><radialGradient id="ratings_19_urg" cx="50%" cy="50%"><stop offset="0%" stop-color="#a5f3fc" stop-opacity="0.4"/><stop offset="100%" stop-color="#164e63" stop-opacity="0"/></radialGradient></defs><rect x="2" y="2" width="20" height="20" rx="3" fill="url(#ratings_19_urg)" stroke="#22d3ee" stroke-width="2"/><polygon points="12,5 13.8,9.5 18.5,9.8 15,13 16.2,17.8 12,15.2 7.8,17.8 9,13 5.5,9.8 10.2,9.5" fill="#22d3ee" opacity="0.9"/><circle cx="12" cy="12" r="11" fill="none" stroke="#67e8f9" stroke-width="0.5" stroke-dasharray="3,3" opacity="0.5"/></symbol>
  <symbol id="space-0" viewBox="0 0 24 24"><rect width="24" height="24" fill="#030712" rx="2"/><circle cx="4" cy="4" r="0.4" fill="white" opacity="0.6"/><circle cx="18" cy="7" r="0.3" fill="white" opacity="0.5"/><circle cx="10" cy="15" r="0.4" fill="white" opacity="0.7"/><circle cx="20" cy="18" r="0.3" fill="white" opacity="0.4"/><circle cx="6" cy="20" r="0.3" fill="white" opacity="0.5"/><circle cx="14" cy="3" r="0.3" fill="white" opacity="0.6"/></symbol>
  <symbol id="space-1" viewBox="0 0 24 24"><rect width="24" height="24" fill="#0f172a" rx="2"/><circle cx="5" cy="5" r="1" fill="#e2e8f0" opacity="0.8"/><circle cx="12" cy="9" r="0.6" fill="#cbd5e1" opacity="0.7"/><circle cx="19" cy="5" r="0.8" fill="#e2e8f0" opacity="0.6"/><circle cx="8" cy="16" r="0.7" fill="#f1f5f9" opacity="0.8"/><circle cx="16" cy="18" r="1" fill="#e2e8f0" opacity="0.7"/><circle cx="20" cy="13" r="0.5" fill="#cbd5e1" opacity="0.6"/><circle cx="3" cy="12" r="0.6" fill="#f1f5f9" opacity="0.5"/></symbol>
  <symbol id="space-2" viewBox="0 0 24 24"><rect width="24" height="24" fill="#0f172a" rx="2"/><polygon points="14,4 18,8 16,14 12,16 8,12 10,6" fill="#92400e" stroke="#f97316" stroke-width="0.5"/><line x1="8" y1="12" x2="3" y2="18" stroke="#fb923c" stroke-width="0.8" opacity="0.6"/><line x1="10" y1="14" x2="5" y2="20" stroke="#fdba74" stroke-width="0.5" opacity="0.4"/></symbol>
  <symbol id="space-3" viewBox="0 0 24 24"><rect width="24" height="24" fill="#0f172a" rx="2"/><polygon points="12,3 18,6 20,12 17,18 11,20 5,17 4,11 8,5" fill="#78350f" stroke="#d97706" stroke-width="0.7"/><circle cx="10" cy="10" r="1.5" fill="#451a03" opacity="0.7"/><circle cx="15" cy="14" r="1" fill="#451a03" opacity="0.6"/></symbol>
  <symbol id="space-4" viewBox="0 0 24 24"><defs><radialGradient id="space_4_wd" cx="50%" cy="50%"><stop offset="0%" stop-color="white"/><stop offset="60%" stop-color="#e0f2fe"/><stop offset="100%" stop-color="#0c4a6e" stop-opacity="0"/></radialGradient></defs><rect width="24" height="24" fill="#0f172a" rx="2"/><circle cx="12" cy="12" r="8" fill="url(#space_4_wd)"/><circle cx="12" cy="12" r="3" fill="white"/></symbol>
  <symbol id="space-5" viewBox="0 0 24 24"><defs><radialGradient id="space_5_gas" cx="50%" cy="50%"><stop offset="0%" stop-color="#2dd4bf" stop-opacity="0.6"/><stop offset="100%" stop-color="#134e4a" stop-opacity="0.1"/></radialGradient></defs><rect width="24" height="24" fill="#0f172a" rx="2"/><ellipse cx="12" cy="12" rx="10" ry="7" fill="url(#space_5_gas)"/><ellipse cx="10" cy="11" rx="6" ry="4" fill="#0d9488" opacity="0.3"/></symbol>
  <symbol id="space-6" viewBox="0 0 24 24"><defs><radialGradient id="space_6_nf" cx="40%" cy="40%"><stop offset="0%" stop-color="#a855f7"/><stop offset="50%" stop-color="#ec4899" stop-opacity="0.5"/><stop offset="100%" stop-color="#7e22ce" stop-opacity="0"/></radialGradient></defs><rect width="24" height="24" fill="#0f172a" rx="2"/><ellipse cx="10" cy="10" rx="8" ry="6" fill="url(#space_6_nf)"/><ellipse cx="15" cy="15" rx="5" ry="4" fill="#c026d3" opacity="0.2"/></symbol>
  <symbol id="space-7" viewBox="0 0 24 24"><defs><radialGradient id="space_7_nb" cx="50%" cy="50%"><stop offset="0%" stop-color="#e879f9"/><stop offset="40%" stop-color="#a855f7" stop-opacity="0.7"/><stop offset="100%" stop-color="#4a044e" stop-opacity="0"/></radialGradient></defs><rect width="24" height="24" fill="#0f172a" rx="2"/><circle cx="12" cy="12" r="10" fill="url(#space_7_nb)"/><circle cx="10" cy="10" r="3" fill="#f0abfc" opacity="0.4"/><circle cx="15" cy="14" r="2" fill="#d946ef" opacity="0.3"/><circle cx="12" cy="12" r="1" fill="white" opacity="0.6"/></symbol>
  <symbol id="space-8" viewBox="0 0 24 24"><rect width="24" height="24" fill="#0f172a" rx="2"/><circle cx="12" cy="12" r="8" fill="#44403c" stroke="#78716c" stroke-width="0.5"/><circle cx="9" cy="10" r="1.5" fill="#292524" opacity="0.7"/><circle cx="14" cy="15" r="1" fill="#292524" opacity="0.6"/><circle cx="16" cy="9" r="0.8" fill="#292524" opacity="0.5"/></symbol>
  <symbol id="space-9" viewBox="0 0 24 24"><defs><radialGradient id="space_9_v" cx="40%" cy="35%"><stop offset="0%" stop-color="#fef08a"/><stop offset="70%" stop-color="#ca8a04"/><stop offset="100%" stop-color="#713f12"/></radialGradient></defs><rect width="24" height="24" fill="#0f172a" rx="2"/><circle cx="12" cy="12" r="8" fill="url(#space_9_v)"/></symbol>
  <symbol id="space-10" viewBox="0 0 24 24"><rect width="24" height="24" fill="#0f172a" rx="2"/><rect x="10" y="10" width="4" height="4" fill="#94a3b8" stroke="#cbd5e1" stroke-width="0.5" rx="0.5"/><line x1="12" y1="10" x2="12" y2="5" stroke="#cbd5e1" stroke-width="0.6"/><circle cx="12" cy="4.5" r="1" fill="none" stroke="#7dd3fc" stroke-width="0.5"/><line x1="10" y1="12" x2="6" y2="12" stroke="#94a3b8" stroke-width="0.5"/><line x1="14" y1="12" x2="18" y2="12" stroke="#94a3b8" stroke-width="0.5"/><rect x="5.5" y="11" width="1.5" height="2" fill="#60a5fa" rx="0.2"/><rect x="17" y="11" width="1.5" height="2" fill="#60a5fa" rx="0.2"/></symbol>
  <symbol id="space-11" viewBox="0 0 24 24"><defs><radialGradient id="space_11_hp" cx="40%" cy="35%"><stop offset="0%" stop-color="#38bdf8"/><stop offset="50%" stop-color="#0284c7"/><stop offset="100%" stop-color="#0c4a6e"/></radialGradient></defs><rect width="24" height="24" fill="#0f172a" rx="2"/><circle cx="12" cy="12" r="8" fill="url(#space_11_hp)"/><ellipse cx="10" cy="10" rx="3" ry="2" fill="#16a34a" opacity="0.8" transform="rotate(-20 10 10)"/><ellipse cx="15" cy="14" rx="2" ry="1.5" fill="#15803d" opacity="0.7"/><ellipse cx="9" cy="15" rx="1.5" ry="1" fill="#166534" opacity="0.6"/></symbol>
  <symbol id="space-12" viewBox="0 0 24 24"><defs><radialGradient id="space_12_dp" cx="40%" cy="35%"><stop offset="0%" stop-color="#c7d2fe"/><stop offset="100%" stop-color="#3730a3"/></radialGradient></defs><rect width="24" height="24" fill="#0f172a" rx="2"/><circle cx="12" cy="12" r="6" fill="url(#space_12_dp)"/><ellipse cx="14" cy="10" rx="2" ry="1" fill="white" opacity="0.2"/></symbol>
  <symbol id="space-13" viewBox="0 0 24 24"><defs><radialGradient id="space_13_mr" cx="40%" cy="35%"><stop offset="0%" stop-color="#fca5a5"/><stop offset="60%" stop-color="#dc2626"/><stop offset="100%" stop-color="#7f1d1d"/></radialGradient></defs><rect width="24" height="24" fill="#0f172a" rx="2"/><circle cx="12" cy="12" r="8" fill="url(#space_13_mr)"/><ellipse cx="9" cy="14" rx="3" ry="1.5" fill="#fca5a5" opacity="0.2"/></symbol>
  <symbol id="space-14" viewBox="0 0 24 24"><rect width="24" height="24" fill="#0f172a" rx="2"/><clipPath id="space_14_jc"><circle cx="12" cy="12" r="8"/></clipPath><circle cx="12" cy="12" r="8" fill="#92400e"/><g clip-path="url(#space_14_jc)"><rect x="4" y="8" width="16" height="2" fill="#fbbf24" opacity="0.6"/><rect x="4" y="11" width="16" height="2.5" fill="#d97706" opacity="0.5"/><rect x="4" y="15" width="16" height="2" fill="#fbbf24" opacity="0.4"/><ellipse cx="9" cy="13" rx="2.5" ry="1.5" fill="#dc2626" opacity="0.6"/></g></symbol>
  <symbol id="space-15" viewBox="0 0 24 24"><rect width="24" height="24" fill="#0f172a" rx="2"/><ellipse cx="12" cy="12" rx="11" ry="3.5" fill="none" stroke="#fef08a" stroke-width="1.2" opacity="0.5"/><circle cx="12" cy="12" r="6" fill="#ca8a04"/><ellipse cx="12" cy="12" rx="11" ry="3.5" fill="none" stroke="#fde68a" stroke-width="0.6" opacity="0.3"/></symbol>
  <symbol id="space-16" viewBox="0 0 24 24"><defs><radialGradient id="space_16_hl" cx="50%" cy="50%"><stop offset="0%" stop-color="#f97316"/><stop offset="50%" stop-color="#dc2626"/><stop offset="100%" stop-color="#450a0a"/></radialGradient></defs><rect width="24" height="24" fill="#0c0a09" rx="2"/><circle cx="12" cy="12" r="9" fill="url(#space_16_hl)"/><polygon points="12,4 14,9 10,9" fill="#fbbf24" opacity="0.8"/><polygon points="8,6 11,10 8,11" fill="#fb923c" opacity="0.6"/><polygon points="16,6 13,10 16,11" fill="#fb923c" opacity="0.6"/></symbol>
  <symbol id="space-17" viewBox="0 0 24 24"><rect width="24" height="24" fill="#0f172a" rx="2"/><ellipse cx="12" cy="12" rx="10" ry="2.5" fill="none" stroke="#a5f3fc" stroke-width="0.8" opacity="0.4" transform="rotate(98 12 12)"/><circle cx="12" cy="12" r="7" fill="#67e8f9"/><circle cx="12" cy="12" r="7" fill="none" stroke="#a5f3fc" stroke-width="0.5" opacity="0.5"/></symbol>
  <symbol id="space-18" viewBox="0 0 24 24"><defs><radialGradient id="space_18_np" cx="40%" cy="35%"><stop offset="0%" stop-color="#93c5fd"/><stop offset="60%" stop-color="#1d4ed8"/><stop offset="100%" stop-color="#1e3a8a"/></radialGradient></defs><rect width="24" height="24" fill="#0f172a" rx="2"/><circle cx="12" cy="12" r="8" fill="url(#space_18_np)"/><ellipse cx="10" cy="11" rx="3" ry="1.5" fill="white" opacity="0.15" transform="rotate(-15 10 11)"/></symbol>
  <symbol id="space-19" viewBox="0 0 24 24"><defs><radialGradient id="space_19_sn" cx="50%" cy="50%"><stop offset="0%" stop-color="white"/><stop offset="30%" stop-color="#fed7aa"/><stop offset="70%" stop-color="#f97316"/><stop offset="100%" stop-color="#431407" stop-opacity="0"/></radialGradient></defs><rect width="24" height="24" fill="#0f172a" rx="2"/><circle cx="12" cy="12" r="11" fill="url(#space_19_sn)"/><circle cx="12" cy="12" r="3" fill="white"/></symbol>
  <symbol id="space-20" viewBox="0 0 24 24"><rect width="24" height="24" fill="#0a0a0a" rx="2"/><ellipse cx="12" cy="12" rx="10" ry="3.5" fill="none" stroke="#f97316" stroke-width="1.5" opacity="0.7"/><ellipse cx="12" cy="12" rx="10" ry="3.5" fill="none" stroke="#fbbf24" stroke-width="0.5" opacity="0.4"/><circle cx="12" cy="12" r="5" fill="#000000"/><circle cx="12" cy="12" r="5" fill="none" stroke="#1c1917" stroke-width="2"/></symbol>
  <symbol id="space-21" viewBox="0 0 24 24"><defs><radialGradient id="space_21_ton" cx="50%" cy="50%"><stop offset="0%" stop-color="#000000"/><stop offset="40%" stop-color="#000000"/><stop offset="60%" stop-color="#7c3aed" stop-opacity="0.8"/><stop offset="100%" stop-color="#2e1065" stop-opacity="0"/></radialGradient></defs><rect width="24" height="24" fill="#050208" rx="2"/><circle cx="12" cy="12" r="11" fill="url(#space_21_ton)"/><ellipse cx="12" cy="12" rx="10" ry="2.5" fill="none" stroke="#a78bfa" stroke-width="1" opacity="0.6"/><circle cx="12" cy="12" r="4" fill="black"/><circle cx="12" cy="12" r="4" fill="none" stroke="#7c3aed" stroke-width="0.5" opacity="0.8"/></symbol>
  <symbol id="space-22" viewBox="0 0 24 24"><defs><radialGradient id="space_22_bb" cx="50%" cy="50%"><stop offset="0%" stop-color="white"/><stop offset="50%" stop-color="#fef9c3"/><stop offset="100%" stop-color="#fbbf24" stop-opacity="0"/></radialGradient></defs><rect width="24" height="24" fill="white" rx="2"/><circle cx="12" cy="12" r="12" fill="url(#space_22_bb)"/></symbol>
  <symbol id="space-23" viewBox="0 0 24 24"><rect width="24" height="24" fill="#030712" rx="2"/><circle cx="12" cy="12" r="8" fill="#0a0a0a" stroke="#1f2937" stroke-width="0.5"/><circle cx="8" cy="8" r="0.3" fill="#374151" opacity="0.4"/><circle cx="16" cy="15" r="0.3" fill="#374151" opacity="0.3"/></symbol>
  <symbol id="space-24" viewBox="0 0 24 24"><defs><radialGradient id="space_24_mv" cx="50%" cy="50%"><stop offset="0%" stop-color="#7c3aed" stop-opacity="0.8"/><stop offset="100%" stop-color="#000" stop-opacity="0"/></radialGradient></defs><rect width="24" height="24" fill="#030712" rx="2"/><circle cx="12" cy="12" r="10" fill="url(#space_24_mv)"/><line x1="12" y1="2" x2="5" y2="22" stroke="#a78bfa" stroke-width="0.5" opacity="0.6"/><line x1="12" y1="2" x2="19" y2="22" stroke="#c4b5fd" stroke-width="0.5" opacity="0.4"/><line x1="2" y1="12" x2="22" y2="8" stroke="#ddd6fe" stroke-width="0.4" opacity="0.5"/><line x1="2" y1="16" x2="22" y2="12" stroke="#ede9fe" stroke-width="0.3" opacity="0.3"/><circle cx="12" cy="12" r="2" fill="none" stroke="#f5f3ff" stroke-width="0.5" opacity="0.7"/></symbol>
</svg>
